<svg xmlns="http://www.w3.org/2000/svg" xmlns:xlink="http://www.w3.org/1999/xlink" width="100" height="100" viewBox="0 0 100 100">
  <defs>
    <clipPath id="clip-path">
      <rect id="Rectangle_3" data-name="Rectangle 3" width="100" height="100" transform="translate(982 1086)" fill="#fff" stroke="#707070" stroke-width="1"/>
    </clipPath>
  </defs>
  <g id="Mask_Group_1" data-name="Mask Group 1" transform="translate(-982 -1086)" clip-path="url(#clip-path)">
    <g id="layer1" transform="translate(1816.633 1093.675)">
      <path id="path6716" d="M57.091,49.32l.018-.053.018-.035.018-.053v-.053l.018-.053.018-.053.018-.035.018-.053.018-.053.018-.053.035-.053.018-.035.018-.053.018-.018v-.018l.018-.018.018-.035v-.018l.018-.018a3.906,3.906,0,0,1,.964-1.139c.351-.245.421-.684.6-1.4.053-1.262.228-1.332.28-1.472a5.054,5.054,0,0,1,.438-1.087,2.82,2.82,0,0,0,.386-1.385,7.1,7.1,0,0,1-.543-1.385c-.263-1.578-.053-2.1.28-2.594a3.6,3.6,0,0,1,1.262-1.4c.228-.105.193-.543.158-.841-.123-.771.105-.7.228-1.1a5.2,5.2,0,0,0,.245-1.069A5.435,5.435,0,0,0,61.578,33a2.17,2.17,0,0,1-.018-.947,1.507,1.507,0,0,0,.263-.771c0-.105.123-.263.175-.438A3.126,3.126,0,0,0,62.156,30c0-.088.105-.7.175-1.139a3.055,3.055,0,0,0-.018-1.525c-.07-.351-.28-.526-.263-.649,0-.158-.035-.649-.07-.947a6.872,6.872,0,0,1,.841-1.367,6.039,6.039,0,0,0-.053-.947c0-.14-.175-.859-.175-1.052,0-.21.035-.333.035-.526q-.026-.316-.053-.894a12.886,12.886,0,0,1,.035-1.613c0-.158-.263-.158-.736-.4s-1.49-1.262-1.665-1.332a5.486,5.486,0,0,0-1.455-.228,15.476,15.476,0,0,0-1.77.28,3.125,3.125,0,0,1-1.157-.193,2.814,2.814,0,0,0-.876-.158,9.355,9.355,0,0,1-1.858,0,3.451,3.451,0,0,1-1.069-.351c-.193-.14-.263-.088-.508-.316-.193-.175-.21-.28-.368-.3a5.682,5.682,0,0,1-1.718-.386,2.916,2.916,0,0,1-.771-1.6,1.548,1.548,0,0,1,.456-1.7,7.079,7.079,0,0,1,1.63-.736c.175-.018-.21-.7-.4-1.35-.088-.245-.456-.193-1.3-1.122a15.611,15.611,0,0,1-1.192-1.525c-.175-.28.018-.438-.158-.456a13.2,13.2,0,0,1-2.173-.193,16.929,16.929,0,0,1-2.331-.666c-.351-.105-1.192-.4-1.455-.491s-.789-.3-1.262-.473c-.456-.158-.666-.526-.894-.543a12.5,12.5,0,0,1-2.173.754,4.718,4.718,0,0,1-1.981-.193c-.6-.088-1.139-.193-1.84-.245a21.975,21.975,0,0,0-3.067.368,10.779,10.779,0,0,1-1.28.28c-.28,0-1.84.456-2.1.508-.28.053-.666-.088-.859-.018-.316.088-.771.193-.929.228-.123.035-2.173.719-2.542.789a12.348,12.348,0,0,0-1.455.456,4.967,4.967,0,0,0-.771.526,4.236,4.236,0,0,1-1.542.771,2.9,2.9,0,0,1-1.017.228c-.613.035-.789.158-.789.245,0,.421-.14,1.262.018,1.332a4.174,4.174,0,0,1,1.192,2.384,8.606,8.606,0,0,1-.105,1.84.9.9,0,0,1-.193.526,3.182,3.182,0,0,1-1.28.421,6.31,6.31,0,0,1-2.279-.386c-1.244-.316-1.35-.438-1.507-.613a1.737,1.737,0,0,0-.649-.456,2.182,2.182,0,0,1-.684-.368c-.21-.193-1.174.28-2.507.386-.245.018-.7.824-1.525,1.244a8.693,8.693,0,0,0-1.157.6c-.6.4-1.3.473-1.209.649.14.333-.123.508-.035,1.332a14.185,14.185,0,0,1-.193,2.752c-.018.333.368.736.543.876a2.5,2.5,0,0,1,.561.964A10.231,10.231,0,0,1,6,25.727a11.857,11.857,0,0,0-.245,2.3,4.48,4.48,0,0,0,.421.964A6.729,6.729,0,0,1,6.7,31.021a9.355,9.355,0,0,1-.123,1.3,2.162,2.162,0,0,0,.351.771,16.075,16.075,0,0,1,.736,1.437,2.633,2.633,0,0,1,.21.719s-.053.456-.07.736-.123,1.244-.228,2.489A7.924,7.924,0,0,0,7.591,40.8a4.775,4.775,0,0,1,.508.526c.088.175.859,1.507.947,1.7a6.9,6.9,0,0,1,.351,1.1c.07.386.175,1.139.21,1.332.053.263.368,1.875.421,2.138.07.333.193,1.244.245,1.613.035.421.07,1.1.105,1.244.035.123.14.368.263.649a14.316,14.316,0,0,1,.438,1.455c.053.21-.035.491.018.666.07.193.28.351.351.508s.631,1.28.876,1.665c.228.333,1.034,1.876,1.262,2.384a.234.234,0,0,1,.053.158.491.491,0,0,0,.14.421c.105.07.28.438.421.456a.871.871,0,0,1,.473.245c.088.14.789.824,1.052,1.1s.438.456.4.7a.87.87,0,0,0,.088.613,6.059,6.059,0,0,1,1.052,1.087,10.543,10.543,0,0,1,.894,1.6,4.487,4.487,0,0,1,.351,1.192.632.632,0,0,0,.228.438,2.271,2.271,0,0,0,.666.526,3.7,3.7,0,0,1,.789.736,2.46,2.46,0,0,1,.719,1.472c.053.245.053.456.14.473s.3.07.351.175c.07.088.07.228.21.316a1.134,1.134,0,0,1,.508.754c.018.175.105.684.158.894.018.158.841,1.034,1.052,1.35.175.28.438.333,1.034.666.578.315.613.526.649.684.035.175.018,1,.07,1.087.14.193.228.105.456.386s.526.684.666.876,1.332.929,1.981,1.525a8.759,8.759,0,0,0,.806.754c.193.123.456.245.666.351a5.551,5.551,0,0,1,1.227.684c.158.088.543.28.771.421a4.508,4.508,0,0,0,1.367.613c.613,0,.929.245,1.28.158,1.472-.28,1.805-.491,2.138-.806.3-.316.806-1.017.964-1.139a9.606,9.606,0,0,1,1.1-1.034,6.432,6.432,0,0,1,1.753-1.367c.386-.263.736-.351.964-.684a11.207,11.207,0,0,0,.982-1.735c.07-.21.193-.263.28-.491.07-.193.035-.351.28-.456.193-.088.649-.613.894-.736.158-.088.035-.561.228-.771a11.388,11.388,0,0,1,1.209-.911A14.468,14.468,0,0,0,47.117,68.6a.979.979,0,0,0,.07-1.157l.28-.421s.508-.561.806-.876c.3-.28,1.1-1.3,1.315-1.507.175-.158.07-1.034.105-1.28.018-.263.6-.7.789-.894a.957.957,0,0,0,.3-.736c.035-.351.28-1.911.368-2.191a1.635,1.635,0,0,1,.175-.351,4.453,4.453,0,0,1,.491-.6c.193-.228,1.157-1.385,1.613-1.788l.088-.053c.228-.158.088-.333.088-.543a1.366,1.366,0,0,1,.228-.543,3.07,3.07,0,0,1,.438-.684c.4-.456.333-.719,1-1.209.245-.175.158-.7.158-.7a1.135,1.135,0,0,1,.123-.508,6.287,6.287,0,0,1,.929-1.227,1.334,1.334,0,0,0,.228-.7,1.728,1.728,0,0,1,.158-.894,1.307,1.307,0,0,1,.123-.21A2.348,2.348,0,0,0,57.091,49.32Z" transform="translate(-816.592 -0.294)" fill="rgba(255,255,255,0.96)" stroke="#99542c" stroke-miterlimit="10.433" stroke-width="10.239"/>
      <path id="polygon6556" d="M-701.68-732.266Z" transform="translate(-207.141 763.514)" fill="#fff" stroke="#fff" stroke-miterlimit="10.433" stroke-width="1"/>
      <path id="path6642" d="M60.176,414.161l.018-.07c-.018-.14-.245-.14-.28-.228a.719.719,0,0,0-.3-.421c-.175-.158-.351-.07-.438-.105s-.21-.07-.158-.3c0-.035-.018-.053-.035-.035l-.123.018-.14-.018-.123.018a2.706,2.706,0,0,0-.771.158c-.105,0-.245.123-.421.123-.175-.018-.368.175-.561.175-.14.018-.508.491-.806.543-.175.018,0,.035-1,.4a3.13,3.13,0,0,0-.876.421,4.07,4.07,0,0,0,.911-.018,4.577,4.577,0,0,0,.806-.088c.649-.088,1.665-.14,2.068-.228.3-.07.508.105.789.018a1.16,1.16,0,0,1,.4-.053c.14-.018.175,0,.263-.018a1.51,1.51,0,0,0,.526-.053c.14-.07.193-.105.21-.158Z" transform="translate(-860.413 -364.732)" fill="#fff" stroke="#fff" stroke-miterlimit="10.433" stroke-width="1"/>
      <path id="path6644" d="M57.008,49.219V49.2h0v-.018h.018v-.035l.018-.018h0V49.1l.018-.018v-.035l.018-.018.018-.018v-.018a3.219,3.219,0,0,1,.3-.754,4.476,4.476,0,0,1,.964-1.139c.351-.245.421-.684.6-1.4.053-1.262.228-1.332.3-1.472a5.693,5.693,0,0,1,.421-1.087,2.867,2.867,0,0,0,.386-1.385,7.1,7.1,0,0,1-.543-1.385c-.263-1.578-.053-2.1.28-2.594.473-.719.771-1.174,1.262-1.4.228-.105.193-.543.158-.841-.123-.771.105-.7.245-1.1a5.718,5.718,0,0,0,.228-1.087,5.717,5.717,0,0,0-.105-.666,2.478,2.478,0,0,1-.018-.947,1.6,1.6,0,0,0,.28-.771A2.164,2.164,0,0,1,62,30.534a3.423,3.423,0,0,0,.158-.859c0-.088.123-.7.193-1.139a3.293,3.293,0,0,0-.018-1.525c-.088-.368-.28-.526-.28-.649,0-.158-.035-.649-.07-.947a8.61,8.61,0,0,1,.841-1.385,4.366,4.366,0,0,0-.053-.929c0-.14-.175-.876-.175-1.069s.035-.316.035-.508c0-.21-.035-.508-.035-.894-.035-.7.018-1.42.018-1.613,0-.158-.263-.158-.736-.4s-1.49-1.244-1.665-1.332a6.31,6.31,0,0,0-1.437-.228,14.341,14.341,0,0,0-1.77.28,3,3,0,0,1-1.157-.193,3.809,3.809,0,0,0-.894-.175,8.136,8.136,0,0,1-1.84.018,3.421,3.421,0,0,1-1.087-.351c-.193-.14-.263-.088-.491-.3-.21-.193-.228-.3-.386-.316a5.682,5.682,0,0,1-1.718-.386,2.916,2.916,0,0,1-.771-1.6,1.561,1.561,0,0,1,.456-1.7,7.079,7.079,0,0,1,1.63-.736c.175-.018-.21-.684-.4-1.35-.088-.245-.456-.193-1.3-1.122a18.911,18.911,0,0,1-1.192-1.525c-.175-.28.018-.438-.158-.456a12.126,12.126,0,0,1-2.173-.21A13.94,13.94,0,0,1,43.2,6.293C42.845,6.188,42,5.907,41.741,5.8c-.263-.088-.789-.316-1.262-.473-.456-.175-.666-.526-.894-.543a12.5,12.5,0,0,1-2.173.754,4.757,4.757,0,0,1-1.981-.193c-.6-.07-1.139-.193-1.823-.245a21.648,21.648,0,0,0-3.067.368,11.11,11.11,0,0,1-1.3.28c-.28,0-1.84.456-2.1.508-.28.053-.666-.088-.859-.018-.3.088-.771.193-.911.228-.14.018-2.191.719-2.542.789a11.613,11.613,0,0,0-1.472.456,3.988,3.988,0,0,0-.771.526,3.953,3.953,0,0,1-1.542.771,2.888,2.888,0,0,1-1.017.21c-.613.035-.789.158-.771.28-.018.4-.14,1.227,0,1.315A4.288,4.288,0,0,1,18.464,13.2a8.227,8.227,0,0,1-.123,1.84,1.1,1.1,0,0,1-.175.526,2.9,2.9,0,0,1-1.3.4,5.857,5.857,0,0,1-2.279-.351c-1.227-.333-1.35-.456-1.49-.649a2.2,2.2,0,0,0-.666-.438,1.736,1.736,0,0,1-.666-.386c-.21-.175-1.192.3-2.524.4-.245.018-.7.824-1.507,1.244a9.35,9.35,0,0,0-1.174.6c-.6.4-1.28.473-1.209.649.14.333-.123.508-.035,1.332a14.312,14.312,0,0,1-.193,2.752A1.458,1.458,0,0,0,5.668,22a2.417,2.417,0,0,1,.561.964A9.2,9.2,0,0,1,6,25.381a12.256,12.256,0,0,0-.245,2.314,3.59,3.59,0,0,0,.438.964A7.162,7.162,0,0,1,6.7,30.692a6.983,6.983,0,0,1-.123,1.3,2.361,2.361,0,0,0,.351.771c.193.263.631,1.209.754,1.437a2.263,2.263,0,0,1,.193.7s-.035.473-.07.754c-.018.28-.123,1.262-.21,2.489a6.763,6.763,0,0,0,.018,2.331,4.9,4.9,0,0,1,.491.543c.088.158.859,1.49.947,1.7A5.665,5.665,0,0,1,9.4,43.8c.07.386.175,1.139.228,1.332.035.245.351,1.876.4,2.138a16.247,16.247,0,0,1,.245,1.613c.035.421.07,1.1.105,1.227h-.018a2.911,2.911,0,0,1,.876-.421c1-.368.824-.386,1-.4.3-.053.666-.526.806-.543.175,0,.386-.193.543-.193.175.018.333-.105.421-.105a2.816,2.816,0,0,1,.771-.158l.806-.158c.333-.053,8.413-2.927,9.921-3.523,1.49-.6.123.438,2.086-.28a27.982,27.982,0,0,0,3.19-1.385c.491-.158,2.91-1.4,2.91-1.4a2.257,2.257,0,0,1,1-.245,6.308,6.308,0,0,0,1.139-.035,2.14,2.14,0,0,1,.754-.07,4.566,4.566,0,0,0,1.087.018c.368-.053.421-.333.6-.386a.98.98,0,0,0,.456-.263c.228-.3.473-.21.578-.4.193-.316.438-.21.964-.631.105-.088.631.035.806-.07.193-.088.947-.684,1.1-.771.175-.123.28-.351.491-.315.456.105.526-.035.754.175.333.316,1.087.841,1.122.911.14.368.7.386.719.876.018.263.263.228.228.631-.018.105.736-.035,1.052.245.21.175,1.017.947,1.139,1,.21.123.578.438.736.508A7.294,7.294,0,0,1,50.435,44.1c.175.228.491.175.684.316a12.277,12.277,0,0,1,2.016,1.49c.158.28,1.367,1.122,1.42,1.315.035.228.6.491.631.684.018.193.771.7,1.052.911a2.7,2.7,0,0,1,.649.578Z" transform="translate(-816.597)" fill="#c56c39" stroke="#c56c39" stroke-miterlimit="10.433" stroke-width="1"/>
      <path id="path6646" d="M193.158,337.186l.018-.035.018-.053.035-.053.018-.035.035-.053.018-.053.035-.035.035-.053.018-.053.035-.035.035-.035.018-.053.035-.035v-.018l.018-.018.018-.018.018-.018v-.018l.018-.018c.421-.438.351-.7,1.017-1.192.245-.175.14-.719.14-.719a1.363,1.363,0,0,1,.14-.491,5.659,5.659,0,0,1,.929-1.227,1.57,1.57,0,0,0,.21-.719,1.845,1.845,0,0,1,.175-.894v-.053a2.434,2.434,0,0,0-.631-.543c-.263-.21-1.034-.736-1.052-.911-.018-.193-.578-.456-.631-.7-.053-.175-1.262-1.017-1.42-1.3a11.555,11.555,0,0,0-2.016-1.507c-.193-.14-.508-.07-.684-.3a7.8,7.8,0,0,0-2.016-1.4c-.14-.053-.508-.368-.736-.491-.123-.07-.929-.824-1.139-1.017-.315-.263-1.052-.123-1.052-.245.035-.386-.21-.351-.21-.613-.018-.491-.6-.508-.736-.876-.035-.07-.789-.613-1.1-.911-.245-.21-.316-.07-.771-.175-.21-.035-.316.193-.473.3-.175.105-.929.7-1.1.789-.193.088-.719-.018-.824.053-.526.438-.771.333-.947.631-.123.21-.368.123-.6.421a1.085,1.085,0,0,1-.438.263c-.175.053-.245.316-.6.368a4.5,4.5,0,0,1-1.087,0,2.2,2.2,0,0,0-.771.07,6.7,6.7,0,0,1-1.122.018,2.572,2.572,0,0,0-1.017.245s-2.4,1.245-2.91,1.42l-.228.105a1.021,1.021,0,0,1-.333.6c-.14.088-.316.035-.4.158-.07.14.105.228.158.3.035.07.123.315-.018.421a1.656,1.656,0,0,0-.333.421c-.088.123-.438.3-.351.473a1.47,1.47,0,0,1,.158.438,1.116,1.116,0,0,1-.123.6c-.018.14.14.123.018.316-.158.228-.3.3-.21.456.07.158-.263.088-.333.105a.356.356,0,0,0-.193.28c-.018.14.035.386-.245.386a1.81,1.81,0,0,0-.771.088c-.105.088.07.245-.053.315-.14.105-.21,0-.316,0a.487.487,0,0,0-.263.14,1.938,1.938,0,0,0-.123.228c-.053.088-.21.14-.228.245-.018.088.088.14-.018.28-.053.105-.175.158-.3.228s-.175-.053-.245.123c-.053.14-.018.193-.088.28-.105.123-.316.158-.438.228a5.13,5.13,0,0,1-1.157.263c-.105,0-.754-.018-.754-.228-.035-.386-.351-.421-.386-.543-.105-.28-.473-.4-.473-.6-.018-.263-.964-.175-1,0-.018.158,0,1.017,0,1.227-.018.333,0,.736.07,2.454a20.443,20.443,0,0,0,.123,2.524,3.07,3.07,0,0,0,.333,1.192l.263-.07c-.035,0,.386-.088.21-.263.245-.018.263-.245-.158-.263.3-.07.28-.228.105-.263.245-.07.351-.158.245-.3.21.035.14-.158.088-.228.158.035.263-.035.228-.14.245.175.438-.018.14-.14.21-.018.14-.105-.175-.158.123.035.351-.07.28-.175.158.123.368-.07.105-.28.175-.053.245-.333.245-.386.018.175-.053.508.14.456-.105.105-.088.21.263.21-.316.053-.4.28,0,.315-.158.123.245.088.421.158-.263.035-.3.105-.193.158-.263.088.035.193.438.245-.386.018-.473.263-.3.368.088.07.228.035.351.018.105-.053.158-.088.28-.14.105-.035.175-.14-.158-.245.158.035.421.018.333-.053.386-.053.368-.245-.175-.421.158.053.754-.035.456-.193.14-.035.018-.28-.175-.263.123-.053.158-.263-.07-.333.228,0,.456-.035.245-.158.14.018.245-.053.193-.14.3.053.228-.123.088-.193.07-.035.3-.105.053-.263.193.018.4-.018.368-.105.228-.018.386-.263-.018-.228a.129.129,0,0,0-.035-.228c.3,0,.421-.386.316-.491.158.018.123-.438.105-.578.105.263.158.421.28.421-.158.105.018.28.193.333-.158.07.123.263.263.228-.245.123-.263.4.316.578-.245-.035-.105.21,0,.28-.088-.07-.4-.07-.316.07-.123.035-.193.263.175.158-.035.088.158.175.421.21-.158.158-.088.228.123.263-.088.053-.193.123-.035.228-.14.105-.316.333.315.351-.28.105-.035.175.123.263-.526-.018-.368.4.018.421-.21.07-.088.263.158.351-.14.123.351.175.21-.07.3-.035.438-.228.228-.28.386-.105.14-.561.018-.543.175-.035.4-.175.228-.3.263.053.561-.193-.123-.245.543-.07.4-.3.158-.386.07-.018.719.053.456-.21.175-.053-.018-.158-.228-.158.158-.035.386-.21.175-.316.088.018.193-.018.105-.21.088.07.491.088.386-.123.14-.053.018-.158-.07-.245.228-.088.088-.4,0-.473,1.192-.053.105-.456.018-.491.263,0,.543-.07.4-.21.6.123.263-.368.088-.456.07,0,.3-.14.158-.28.28.14.473.088.193-.21.123-.035.053-.193-.053-.21.263.035.263-.543.263-.543s.175.526.438.561c-.245.088-.193.491-.018.508-.053.175.245.158.4.193-.456,0-.368.263.018.333-.193.105,0,.245.263.193-.245.088-.228.263.07.438-.123.07-.228.21-.105.351-.193,0,0,.263.368.333-.473.018-.578.158,0,.368-.088.018-.053.158.158.228-.316.14-.3.4.263.421-.21.07-.018.14.158.263-1,.07-.456.491-.07.421-.351.158.193.123.4.228-.351.035-.754.088-.6.193-.193.035-.21.3.6.3-.14.07.123.333.245.4-.929.123-.491.263-.018.368-.14.035-.263.28.245.245-.3.07-.578.21-.333.368.245.14.21.175,3.1.438,2.279.21,2.664.263,3.19.333.613.088.158-.3-.035-.456.929.158.456-.3.333-.4.123,0,.4-.07.193-.21.491.07.333-.263.245-.368.649-.158.315-.333.088-.456.123-.035.228-.088.14-.21.421.158.3-.053.14-.158.175.018.421-.263.158-.386.28-.07.193-.175.123-.21.7-.035-.105-.368.105-.28.3-.088.526-.438.263-.526.245-.035.421-.245.175-.368a.286.286,0,0,0,.088-.4c.456.07.316-.316.193-.351.333.053.368-.719.368-.719s.035.508.351.543c-.193.105.175.333.333.386-.3,0-.333.193-.193.263-.263.018.018.333.228.4-.438.07-.07.245.035.333-.21.035-.193.193.035.245-.228.105-.035.351.07.386a.421.421,0,0,0,.368-.088c.175-.193-.053-.333-.158-.386.421-.07.4-.4.245-.473.333-.018.245-.386.123-.473.245.018.263-.315.28-.508.07.263.053.473.228.543a.274.274,0,0,0,.193.473c-.123.07.018.28.175.333-.421.105.088.421.193.421-.228.228.158.4.158.4a.593.593,0,0,0-.158.456c.053.228.4.175.508.088.21-.175-.035-.421-.123-.473a.246.246,0,0,0,.105-.473c.351,0,.806-.123.3-.245-.07,0,.4-.193.088-.263.438.018.14-.4.14-.4s.473-.053.228-.245a.234.234,0,0,0,.3-.193.387.387,0,0,0,.333.421c-.245.123.07.14.123.175-.4.123-.088.28.105.333-.228.053-.193.228-.018.315-.193.053.018.193.193.228-.28.228-.158.456.07.491-.263.4.158.351.263.263.105-.053.158-.158.123-.228s-.105-.07-.193-.105c.386-.105.193-.333.07-.4.508-.053.368-.368.263-.438.14-.018.28-.07.193-.175.123-.018.07-.14.123-.316.018.228.07.4.175.438-.088.088.035.158.088.193-.333-.07-.07.21.035.228-.14.14-.018.193.088.193-.105.105-.035.14.088.175-.14.105.035.333.28.245.368-.123,0-.351,0-.351.21,0,.368-.088.263-.175.386.105.613-.228.3-.386a.208.208,0,0,0-.053-.4c.368.07.613-.035.4-.316.21.018.193-.175.21-.3.053.245.14.263.228.263-.14.158-.018.228.07.28-.035.088.053.21.21.193-.088.07.018.158.123.175-.438.035-.316.263-.123.263-.035.14,0,.193.245.158-.158.193.123.228.228.228-.368,0-.316.421-.07.333-.018.228.351.07.473.123-.263.245-.193.438.351.333-.263.368.21.263.245.14.333.228.438-.105.228-.21.158-.018.105-.14-.123-.21.3,0,.228-.088.175-.175.228.07.315-.053.228-.193.245.035.245-.245.245-.245a.175.175,0,0,0,.21.14c-.088.193.07.245.3.193-.088.193.018.263.175.28a.22.22,0,0,0,.105.245Z" transform="translate(-955.919 -281.832)" fill="#99542c" stroke="#99542c" stroke-miterlimit="10.433" stroke-width="1"/>
      <path id="path6662" d="M238.859,323.718l-.053-.018-.035.018h-.14l-.07.018-.07.018-.07.018-.07.018-.07.018-.088.035-.07.035-.035.018-.035.018-.035.018-.053.018-.035.018-.053.018-.035.018-.053.035-.035.018-.053.018-.053.035-.035.018a27.664,27.664,0,0,1-2.542,1.542,1.284,1.284,0,0,0-.736.929c.018.21.6.035,1.122-.088.649-.193.684-.28.719-.438.018-.105.4-.315.736-.666.263-.28-.053-.351.193-.491a9.246,9.246,0,0,1,1.017-.806A3.084,3.084,0,0,0,238.859,323.718Zm14.513,3.733v.018h.018v.018h.018v.018l.018.018.018.018v.018l.018.018.018.018.018.018.018.018.018.018.018.018.035.035.035.035.035.035.018.018.018.018.018.018.018.018.018.018v.018l.018.018.018.018.018.018h.018v.018l.018.018c.123.088.245.228.333.088.07-.14-.21-.193-.421-.4s-.105-.3-.333-.386C253.18,327.153,253.32,327.381,253.373,327.451Zm-4.119-2.349h.018v.018h0l.018.035.018.018v.018l.018.018.018.035.035.018.018.035.018.018.018.035.035.035.018.035.018.035.053.053.053.07.053.07.035.018.018.035.035.035.018.018.035.035.018.035.018.018.018.018.018.035.035.018v.018h.018a4.174,4.174,0,0,1,.473.508c.088.158.21.07.228-.018.018-.105-.368-.456-.228-.456.123,0,.245.315.421.473a2.349,2.349,0,0,1,.386.526,2.381,2.381,0,0,0,.473.526.69.69,0,0,1,.245.386,2.816,2.816,0,0,0,0-.421c-.018-.228-.386-.4-.631-.613-.175-.158-.088-.351-.245-.543-.158-.175-.666-1.052-.806-1.157s-.21.123-.316.245c-.088.123-.315-.421-.438-.6-.105-.158-.3-.613-.456-.491C248.938,324.366,249.2,324.962,249.254,325.1Zm-3.646-1.069v.035h.018v.018h0v.035h0v.018h.018v.018h0v.018l.018.018h0v.018l.018.018v.018h0v.018h0v.018h0v.018h0c0,.105-.123.053-.123.14,0,.105-.035.316.175.351s.228.053.368.018c.158-.035.456.07.526-.035.088-.105-.07-.245-.175-.3-.123-.07-.14-.263-.21-.421a.594.594,0,0,0-.526-.21C245.573,323.841,245.59,323.911,245.608,324.033Zm3.12,1.911.018.053.035.035.018.053.035.035.035.035.018.035.035.035.035.035.035.035.035.018.035.035.035.035.035.018.035.035.053.018.035.035.053.018.035.018.053.035.053.018.053.035.053.018.053.018.053.035.053.018.053.035.07.018.053.035.07.018.07.035.07.035.07.035c.193.088-1.157-1-1.507-1.4-.316-.333-.684-.894-.964-.911C247.378,324.559,248.587,325.664,248.728,325.944Zm-7.414-1.665-.035.018-.018.018h-.035l-.035.018-.035.018-.035.018-.035.035-.035.018-.053.035-.035.018-.035.035-.053.035-.035.018-.053.035-.088.07-.088.07-.088.07-.088.088-.035.035-.035.035-.053.035-.035.035-.035.035-.018.035-.035.035-.035.035-.018.035-.018.018a.331.331,0,0,0-.018.421.119.119,0,0,0,.175-.018c.053-.053.14-.3.28-.386.158-.088.368-.438.491-.543S241.594,324.209,241.313,324.279ZM239.14,325.3h-.07v.018h-.035l-.018.018H239l-.018.018h-.035v.018h-.018l-.018.018h0l-.018.018h-.035v.018h-.018l-.018.018h-.018c-.14.123-.228.158-.158.228.053.07.123.123.21.035a2.673,2.673,0,0,1,.3-.315C239.245,325.348,239.228,325.3,239.14,325.3Zm1.735-1.525h-.018l-.035.018h-.018l-.035.018-.035.018-.035.018-.035.018-.035.018-.053.018-.035.018-.035.035-.053.018-.035.018-.053.035-.088.053-.105.053-.088.035-.035.035-.053.018-.035.035-.053.018-.035.018-.035.018-.035.035-.035.018-.035.018H239.7l-.035.018-.018.018c-.263.123-.456.28-.438.333,0,.07.07.088.3.105s.228,0,.438-.158c.193-.158.508-.438.649-.561C240.752,323.963,240.945,323.753,240.875,323.771ZM259.35,331.2H259.3l-.035-.018h-.035l-.035-.018h-.053l-.018-.018h-.053l-.018-.018H259l-.018-.018h-.053l-.018-.018a5.207,5.207,0,0,0-1.648-.421,14.466,14.466,0,0,0-1.788-1.122c-.263-.088-1.911-1.087-2.121-1.122-.719-.088-.911-.333-.824-.105a1.222,1.222,0,0,1,.333.719,5.846,5.846,0,0,0,.193.631,4.919,4.919,0,0,1-2.857-1.42c-.754-1.139-.894-1.42-1.3-1.683a2.047,2.047,0,0,1-.911-.841c-.053-.07-.018-.228-.14-.245-.245-.018-.438.035-.578-.245-.088-.175-.245.088-.368.193-.105.07-.316.035-.263.175.035.123-.158.193-.07.263.386.368.193.7.368.771.07.018.158.263.14.421-.035.351.193.421.21.6,0,.14.105.473,0,.456a1.776,1.776,0,0,1-.631-.4c-.193-.175-.351-.175-.386-.333a5.508,5.508,0,0,1-.421-.578,3.89,3.89,0,0,1,.456.982,2.808,2.808,0,0,0,.421.894c.158.21-.018.578-.018.578a1.394,1.394,0,0,1-.578-.4c-.193-.351-.754-.4-1.209-1.227-.158-.315.018-.947.018-1.122,0-.263-.3-.4-.543-.824-.245-.351.053-1.244,0-1.525-.053-.245.07-.631-.053-.631-.193.018-.771.578-1.472.947-.123.053-.386.28-.473.3a1.5,1.5,0,0,0-1.069.982c-.316.666-.543,1-.666,1.244-.14.245.053.3-.14.473-.14.105-1.262,1.209-1.42,1.367-.578.578-.631.368-.613.3a19.279,19.279,0,0,1,1.157-1.735c.263-.4-.263.018-.456-.088-.333-.193.018-.6.088-.649.14-.158.035-.28.123-.386.245-.263.088-.3.175-.368.158-.123.088-.123,0-.088a6.522,6.522,0,0,0-.929.578c-.175.175-1.613,1.052-1.3.613a1.977,1.977,0,0,1,.333-.333,1.081,1.081,0,0,0,.28-.543c0-.105-.018-.228.053-.3.736-.631-.105-.14-.193-.053a8.668,8.668,0,0,1-1.315.894c-.21.105-.806.386-.859.543-.07.158-.14.3-.263.245-.28-.123-.421-.053-.649.14-.228.175-.351-.035-.456-.018-.351.07-.543-.07-.684-.035-.245.07-1.262.789-1.56.7l-.14.018-.053-.07-.018-.053a1.047,1.047,0,0,0,.14-.6,1.107,1.107,0,0,0-.158-.438c-.07-.175.28-.351.368-.473a2.649,2.649,0,0,1,.316-.438c.14-.088.07-.3.018-.368-.035-.088-.21-.21-.14-.333.07-.14.263-.07.421-.158a.973.973,0,0,0,.3-.631l.228-.088c.491-.158,2.91-1.42,2.91-1.42a2.548,2.548,0,0,1,1-.245,5.343,5.343,0,0,0,1.139-.018,2.14,2.14,0,0,1,.754-.07,4.568,4.568,0,0,0,1.087.018c.368-.07.421-.333.6-.386a1.158,1.158,0,0,0,.456-.263c.228-.3.473-.21.6-.4.175-.316.421-.21.947-.631.105-.088.631.035.806-.07.193-.088.947-.684,1.1-.771.175-.123.28-.351.491-.316.456.105.526-.035.754.175.333.315,1.087.824,1.122.911.14.368.7.386.719.876.018.263.263.228.228.631-.018.105.736-.035,1.052.228.21.193,1.017.964,1.139,1.017.21.123.578.438.736.508a7.294,7.294,0,0,1,2.016,1.385c.175.228.491.158.684.3a13.351,13.351,0,0,1,2.016,1.507c.158.28,1.367,1.122,1.42,1.315.035.228.6.491.631.684.018.193.771.7,1.052.911a3.316,3.316,0,0,1,.649.561Z" transform="translate(-1019.132 -281.685)" fill="#fff" stroke="#fff" stroke-miterlimit="10.433" stroke-width="1"/>
      <path id="path6666" d="M110.983,171.541v.018l-.018.018v.018l-.018.018v.035h-.018v.018l-.018.018v.018l-.018.018v.053l-.018.018v.035a20.379,20.379,0,0,0-.368,2.191.988.988,0,0,1-.316.719c-.193.21-.754.649-.789.911-.018.245.07,1.122-.105,1.28-.21.21-1,1.192-1.315,1.507-.3.315-.806.876-.806.876l-.28.4a.927.927,0,0,1-.07,1.157,13.433,13.433,0,0,1-2.016,1.981,11.973,11.973,0,0,0-1.209.894c-.175.228-.07.684-.21.771-.263.14-.7.666-.894.736-.245.123-.228.263-.3.473s-.21.263-.263.491a12.231,12.231,0,0,1-1,1.718c-.228.351-.578.421-.964.7a7.255,7.255,0,0,0-1.753,1.35c-.4.3-.929.894-1.1,1.017-.158.158-.649.859-.964,1.174-.333.316-.649.508-2.138.789-.333.088-.666-.14-1.262-.14a4.656,4.656,0,0,1-1.385-.631c-.228-.14-.613-.315-.771-.438a6.085,6.085,0,0,0-1.209-.649,4.241,4.241,0,0,1-.684-.368A8.8,8.8,0,0,1,87.9,190c-.649-.6-1.823-1.332-1.981-1.525a10.626,10.626,0,0,0-.666-.894c-.21-.263-.316-.175-.438-.386-.07-.088-.035-.911-.088-1.069-.035-.175-.07-.368-.649-.7s-.841-.368-1.034-.649c-.21-.333-1.017-1.192-1.052-1.367-.053-.193-.123-.719-.158-.894a1.048,1.048,0,0,0-.508-.736c-.14-.105-.14-.245-.21-.333-.053-.088-.245-.14-.333-.175-.105-.018-.105-.21-.158-.473a2.515,2.515,0,0,0-.719-1.472,4.66,4.66,0,0,0-.771-.719,2.328,2.328,0,0,1-.666-.526.713.713,0,0,1-.228-.456,4.248,4.248,0,0,0-.368-1.209A12.079,12.079,0,0,0,77,174.836a5.649,5.649,0,0,0-1.052-1.069.816.816,0,0,1-.105-.613c.035-.245-.14-.421-.386-.719-.263-.263-.964-.964-1.069-1.1a.865.865,0,0,0-.456-.228c-.158-.035-.333-.4-.438-.473s-.123-.21-.123-.421a.442.442,0,0,0-.07-.158,1.968,1.968,0,0,0-.088-.228l-.035-.053c.053-.018.123-.053.175-.07.123-.053.105-.105-.053-.123.123-.035.263-.14.14-.193.14-.07.263-.228.14-.263.088-.07.14-.368.14-.368a.654.654,0,0,0,.158.3c-.123,0,.018.07.07.123-.07.035.035.07.105.14-.105.035-.07.088.035.123-.07.053.053.07.158.035-.053.088-.105.088-.105.088a2.187,2.187,0,0,0,.824-.245c.28-.193.175-.263-.053-.368.21-.07.736-.228.561-.386.14-.105-.053-.175-.228-.21.631-.14.666-.245.6-.28.333-.193-.07-.28-.175-.351.421.088.333-.053.28-.158.351.158.368-.21.228-.315.14-.018.158-.21-.053-.333.351.035.561-.035.28-.228.175-.07.193-.158.123-.228.193-.123.07-.245-.018-.28.193-.088.175-.3.07-.351a1.7,1.7,0,0,0,.228-.631.677.677,0,0,0,.245.508.155.155,0,0,0,.105.263c-.14.21-.053.28.193.316-.088.123-.175.228.158.245-.28.193-.175.315.088.28-.28.105-.105.28.193.228-.21.158-.21.333.105.28-.3.158-.333.368.14.351-.158,0-.315.421.28.543.053-.473.228-3.733.263-4.329.018-.649-.018-1.1-.018-1.1a1.275,1.275,0,0,0-.333,0,1.267,1.267,0,0,1-.806-.018,1.374,1.374,0,0,0-.789-.035,2.025,2.025,0,0,0-.7.088.827.827,0,0,1-.789-.158c-.14-.105,0-.351.228-.351.508.018.613-.158.666-.245.14-.28-.193-.228-.245-.368a.729.729,0,0,0-.316-.4c-.158-.158-.333-.07-.421-.105-.088-.053-.21-.07-.158-.316,0-.07-.053.018-.245,0-.193-.035-.07-.035-.245-.07-.158-.018-.053-.175-.263-.21-.158-.018-.175.088-.438.105a2.719,2.719,0,0,1-.6-.088c-.14-.053-.315.018-.421-.07-.123-.088-.07-.245-.123-.438,0-.105.175-.263.245-.421.088-.14.245-.193.649-.14a3.5,3.5,0,0,0,.771.035c.4-.053.21.123.508.105.3,0,.666-.175.684-.351.035-.158.035-.333-.07-.368-.105-.053-.263-.053-.368-.193a.534.534,0,0,1-.088-.421c.018-.123.193-.28.368-.386.351-.228.158-.351.263-.386a1.05,1.05,0,0,1,.473-.105,4.62,4.62,0,0,1,.806.123c.316,0,.631.088.859.088.631-.035.035-.333.368-.28a1.81,1.81,0,0,0,.6-.123c.3-.14.3-.421.456-.561.088-.07.07-.386.053-.508a.458.458,0,0,0-.351-.4c-.193-.035-.386,0-.631-.035a.684.684,0,0,0-.4.035.552.552,0,0,0-.263.14c-.14.105-.228.105-.333.21-.14.123-.053.316-.21.4-.333.175-.3-.018-.456.018a.992.992,0,0,1-.4-.035c-.158-.035-.4-.088-.421-.21a.33.33,0,0,0-.21-.263c-.088-.053-.105-.14-.21-.14a.418.418,0,0,0-.333.123c-.14.105-.088.263-.14.351-.14.21-.105.368-.245.368-.158,0,0-.158-.263-.088-.14.035-.123.158-.316.21-.14.053-.193.088-.4.175-.245.105-.3-.018-.508-.07-.175-.053-.263-.175-.508-.175-.175.018-.07-.316.123-.543.175-.193.4-.07.561-.263.3-.368.3-.158.368-.456.053-.193.28-.105.245-.3-.035-.21-.193-.105-.228-.351a.344.344,0,0,1,.245-.4c.21-.018.491.105.754-.088a2.607,2.607,0,0,0,.543-.3c.105-.123.053-.3.14-.351.07-.053.28.018.228-.28-.053-.228-.316-.07-.491-.228-.123-.088-.088-.193-.193-.21-.3-.035-.14.175-.561-.07-.175-.105-.035-.175-.175-.263-.158-.088-.28,0-.561-.14-.245-.123-.491.088-.561-.088-.035-.123-.28-.228-.316-.28a.41.41,0,0,1-.07-.3c.018-.14-.018-.333.123-.4a.859.859,0,0,0,.316-.3c.158-.175.053-.386.158-.473.123-.105.333-.543-.228-.228-.175.088-.4-.018-.456.07-.053.07-.438.07-.438-.088,0-.21.368-.193.193-.438-.175-.228-.316-.088-.316-.333-.018-.123.28-.316.456-.386a.9.9,0,0,1,.824-.053c.894.438.736.088,1.052.088.333.018.245.175.876.21.28.018.666.018.666-.14,0-.175-.228-.175-.386-.21-.14-.035-.351.14-.473-.088-.088-.105.21-.175.175-.368,0-.193-.316.018-.333-.14-.053-.228.158-.438-.053-.578a.435.435,0,0,0-.421-.018c-.14.07-.263.193-.508-.035-.263-.21.14-.316.018-.491-.105-.175-.456.088-.368-.175.053-.123.245-.4.473-.368a3.451,3.451,0,0,0,1.613-.193c.3.053.3.175.649.158.263-.018.386-.28.859-.3a1.727,1.727,0,0,1,1.052.21c.964.28.6-.228.806-.228.28.018.316-.158.316-.263,0-.088-.158-.14-.386-.193-.21-.035-.175-.21-.649-.123-.6.14-.947.035-1.139.193-.316.245-.613.193-.754-.053a.727.727,0,0,0-.6-.3c-.333.088-.508.053-.6-.105a.936.936,0,0,0-.491-.4c-.193-.053-.438.14-.561-.228-.105-.263.21-.3.316-.438.123-.14,0-.28.123-.368.193-.14.526-.333.491-.456-.175-.351-.28.053-.386-.035-.333-.245-.421.018-.578-.053-.175-.088.21-.245.228-.4.035-.175-.07-.333.193-.561.438-.351.123-.351.088-.473-.018-.123.088-.228.035-.316-.053-.123-.175-.14-.193-.245a.629.629,0,0,1,.245-.456c.105-.07.018-.193.526-.316.526-.123.21-.351.21-.438a.318.318,0,0,1,.14-.28c.088-.035.175,0,.316-.018a1.494,1.494,0,0,1,.4-.053c.175.035.158.123.3.158a2.123,2.123,0,0,0,.351-.018c.228.018.316.158.508.088a.323.323,0,0,0,.193-.386c0-.14-.21-.035-.193-.175s.14-.088.123-.368c0-.123-.018-.228.175-.28.21-.053.228-.14.368-.14a4.95,4.95,0,0,0,.526.158c.123,0,.438-.035.473.123.053.193.123.316.158.438.018.088.018.193.14.245a.21.21,0,0,1,.14.228c0,.21.053.754.053.754s.07.175.158.14c.105-.035.21-.088.245-.719a8.1,8.1,0,0,0,.018-1.6c-.14-.245-.053-.316-.158-.438s-.228,0-.228-.123c0-.14.018-.368-.158-.4-.245-.053-.245.21-.263.315,0,.105-.175.14-.386.14a1.747,1.747,0,0,1-.754-.3c-.088-.053-.123-.105-.088-.438.035-.263.245-.456.123-.578-.123-.105-.158-.14-.491-.14-.316,0-.543-.018-.526-.193.018-.245.3-.245.789-.21a.308.308,0,0,0,.333-.386c-.018-.088.07-.158.07-.351a.277.277,0,0,0-.4-.245c-.228.123-.368.035-.526.123a.532.532,0,0,1-.649.053.3.3,0,0,1-.14-.368c.07-.158.14-.175.158-.368,0-.175-.21-.193-.053-.368.175-.193,0-.473.175-.578.351-.245.035-.456.316-.6a.551.551,0,0,0,.193-.491c0-.158-.193-.193-.053-.351.14-.14.07-.4.368-.456a2.136,2.136,0,0,0,.684-.263c.158-.053.4-.245.684-.386.158-.088.193-.088.666-.14a1.305,1.305,0,0,0,.543-.368c.123-.14.263-.175.543-.193.158-.035.245.088.526.21s.245.316.491.368c.158.035.456-.035.3.245-.123.21.07.368-.21.4-.158.035-.28.123-.28.21.018.193.21.263.421.351.228.088.228.245.351.386.088.088.105.368.14.543a2.076,2.076,0,0,1,.035.456,1.584,1.584,0,0,1,.105.491,1.2,1.2,0,0,1-.193.456,4.681,4.681,0,0,0-.21.421,4.317,4.317,0,0,0-.035.456c-.035.14-.105.368,0,.438.088.035.193,0,.333.035.088.018.193.158.228.228.035.088-.018.333.263.386a.24.24,0,0,1,.193.21c-.035.228-.105.421.088.649.123.158.28.123.543.123.263-.018.228-.333.28-.526a1.426,1.426,0,0,1,.491-.649c.123-.07-.123-.386.508-.438s.841-.035.947.14c.228.491-.018.508-.158.736-.07.14-.21.175-.21.4.018.351.421.28.421.438,0,.088-.14.105-.158.245,0,.14.21.158.21.333,0,.088-.333.3-.123.438.105.088.21.158.245.561.035.175-.245.158-.228.351.018.245-.018.3-.175.386-.228.123-.351.316-.228.438.123.088.3.035.386.158.088.105-.07.508.07.631.088.088.421-.053.3.193-.175.368.263.421-.175.631-.263.123-.386.14-.526.21-.21.088-.473.193-.508.333-.035.158.035.386-.175.421-.193.018-.193.28-.14.368.053.105.21.21.21.333a2.624,2.624,0,0,0-.018.543.473.473,0,0,0,.245.351c.123.053-.088.21-.018.3a.786.786,0,0,0,.6.175c.28,0,.649-.053.859-.053.228,0,.14.14.245.228.21.158.508,0,.631.123.21.193.351.105.4.3.035.105.14.14.193.263.035.123-.105.263.018.4.105.105.035.245-.018.351a1.194,1.194,0,0,0-.228.421c-.035.158,0,.28-.158.421-.105.105-.175.245-.368.193-.193-.035-.386-.088-.649-.123-.316-.07-.316.123-.4.228-.105.123-.508.14-.526.368-.018.158.053.158.456.105.14-.035.14.263.053.368a.979.979,0,0,1-.508.543c-.193.07-.456-.28-.543-.263-.193.035-.351-.14-.491,0a1.5,1.5,0,0,1-.368.193c-.105.088.088.386-.053.386s-.316-.018-.368.123c-.07.193.07.3.21.351.123.053.315.105.315.21s-.3.333-.035.438c.333.105.158.21.421.3.28.088.841.175,1.578.438.508.175.859.316.947.491.07.14-.035.158-.018.263.035.105.193.245.508.368a.568.568,0,0,1,.333.333c.035.14-.263.123-.193.543.018.228-.21.228-.175.491.018.263-.035.228-.175.473-.158.28-.386.316-.3.508.053.088.245.088.456.088a5.6,5.6,0,0,0,.649.088c.6.018.666-.175,1.139-.193a.774.774,0,0,1,.508.175c.07.088.035.193.018.333a.913.913,0,0,1-.316.613c-.14.088-.316.018-.4.158-.07.14.105.228.158.3.035.07.123.315-.018.421a1.655,1.655,0,0,0-.333.421c-.088.123-.438.3-.351.473a1.47,1.47,0,0,1,.158.438,1.116,1.116,0,0,1-.123.6c-.018.14.14.123.018.3-.158.245-.3.3-.21.456.07.175-.263.105-.333.123-.088.018-.158.123-.193.28-.035.14.035.368-.245.368a1.9,1.9,0,0,0-.789.105c-.088.088.088.245-.035.315-.14.088-.21,0-.316,0a.487.487,0,0,0-.263.14,1.386,1.386,0,0,0-.14.228c-.035.088-.193.14-.21.228-.018.105.088.158-.018.3-.053.105-.175.158-.3.228s-.175-.053-.263.123c-.035.14,0,.193-.07.28a1.125,1.125,0,0,1-.438.21,4.571,4.571,0,0,1-1.157.28c-.105,0-.754-.018-.754-.245-.035-.368-.351-.4-.386-.526-.123-.28-.473-.4-.473-.6-.018-.263-.964-.175-1,0-.018.14,0,1.017,0,1.209-.018.351,0,.754.07,2.454a20.563,20.563,0,0,0,.123,2.542,3.07,3.07,0,0,0,.333,1.192l.263-.088c-.035.018.386-.07.193-.245.263-.018.28-.245-.14-.263.3-.07.28-.245.105-.263.245-.07.351-.158.245-.3.21.035.14-.158.088-.245.158.053.263-.018.21-.123.263.158.456-.018.158-.14.21-.018.14-.123-.175-.158.123.018.351-.07.28-.175.158.123.368-.07.105-.3.158-.053.245-.315.245-.368.018.175-.053.491.14.438-.105.123-.088.228.263.228-.315.035-.4.28-.018.316-.14.123.263.088.438.158-.263.018-.3.105-.193.14-.263.105.035.193.438.263-.386.018-.473.263-.3.368a.481.481,0,0,0,.351,0c.105-.035.158-.088.28-.123.105-.035.175-.14-.158-.245.158.035.421.018.333-.053.386-.053.368-.263-.175-.421.14.053.754-.053.456-.193.14-.035.018-.28-.175-.263.123-.053.158-.263-.07-.333.228,0,.438-.035.245-.158.14,0,.245-.053.175-.14.315.053.245-.14.105-.193.07-.053.3-.105.053-.28.193.018.4,0,.368-.088.228-.018.386-.263-.018-.228.053-.07.105-.158-.035-.228.3,0,.421-.386.3-.491.175.018.14-.456.123-.578.105.263.14.421.263.421-.14.088.035.28.21.316-.158.088.123.28.263.245-.245.123-.263.4.316.561-.245-.018-.105.228,0,.28-.088-.053-.4-.053-.316.088-.123.035-.193.263.175.158-.053.088.158.158.421.21-.158.158-.088.228.123.263-.088.053-.193.123-.035.228-.14.105-.316.316.315.333-.28.123-.035.193.123.28-.526-.018-.368.4.018.421-.21.07-.088.263.158.351-.14.123.351.175.21-.07.3-.035.438-.228.228-.28.386-.105.14-.561.018-.543.175-.053.4-.175.228-.316.263.07.561-.175-.123-.228.543-.07.4-.3.158-.386.07-.035.719.053.456-.21.175-.053-.018-.175-.228-.158.158-.053.386-.21.175-.316.088.018.175-.018.105-.228.088.088.491.088.368-.105.158-.053.018-.175-.053-.245.228-.088.088-.4,0-.473,1.192-.07.105-.456,0-.491.28,0,.561-.088.421-.21.6.123.263-.386.088-.456.07-.018.28-.14.158-.28.28.123.473.088.193-.21.123-.035.053-.193-.053-.21.263.035.263-.543.263-.543s.175.526.438.561c-.245.088-.193.473-.018.508-.053.175.245.158.4.175-.456.018-.368.28.018.333-.193.123,0,.263.263.21-.245.088-.245.263.07.438-.123.07-.228.21-.105.333-.193.018,0,.263.368.333-.473.018-.578.175,0,.368-.088.035-.053.175.158.245-.315.14-.3.4.263.421-.21.07-.018.14.158.263-1,.07-.456.491-.07.421-.368.158.193.123.4.228-.351.035-.771.088-.6.175-.193.053-.21.316.6.3-.14.088.123.351.245.421-.929.123-.491.263-.018.368-.14.035-.263.28.245.228-.3.088-.578.228-.333.386.245.14.21.175,3.1.421,2.279.228,2.664.28,3.19.351.613.088.158-.3-.035-.456.929.14.456-.3.333-.4.123,0,.4-.07.193-.21.491.07.333-.28.245-.368.649-.158.316-.333.088-.456.123-.035.228-.088.14-.21.421.158.3-.053.14-.158.175.018.421-.263.158-.386.28-.07.193-.175.123-.228.7-.018-.105-.351.088-.263.315-.088.543-.438.28-.526.245-.035.421-.245.175-.368a.306.306,0,0,0,.088-.4c.456.07.315-.316.193-.351.333.053.368-.719.368-.719s.035.508.351.543c-.193.105.175.333.333.386-.3,0-.333.193-.193.263-.263.018.018.316.228.386-.438.088-.088.263.035.351-.21.035-.193.193.035.245-.228.105-.035.351.07.368a.338.338,0,0,0,.368-.088c.175-.175-.053-.333-.175-.368.438-.07.4-.4.263-.473.333-.018.245-.386.105-.473.263,0,.28-.316.3-.508.07.245.053.473.21.543a.282.282,0,0,0,.21.473c-.123.07.018.28.158.333-.4.105.105.421.21.421-.228.21.158.4.158.4a.575.575,0,0,0-.158.438c.053.245.4.175.508.105.21-.175-.035-.421-.123-.473a.246.246,0,0,0,.105-.473c.351,0,.806-.123.3-.263-.07.018.4-.175.088-.245.438.018.14-.4.14-.4s.473-.053.228-.245a.246.246,0,0,0,.3-.193s-.053.3.333.421c-.245.123.07.123.123.175-.4.123-.088.28.105.333-.228.053-.21.228-.018.315-.193.035.018.193.193.228-.28.21-.158.456.07.491-.28.386.158.333.263.263.105-.053.158-.158.123-.228s-.105-.07-.193-.105c.386-.105.193-.333.07-.4.508-.053.368-.368.263-.438.14-.018.28-.07.193-.175.105-.018.07-.158.123-.316.018.228.053.4.175.438-.088.088.035.158.088.193-.333-.07-.07.21.035.228-.158.123-.035.175.088.175-.105.105-.035.158.088.193-.14.105.035.333.28.245.368-.123,0-.368,0-.368.21,0,.368-.07.263-.175.386.123.613-.21.3-.368a.208.208,0,0,0-.053-.4c.368.07.613-.053.386-.333.228.035.21-.175.228-.28.053.245.14.245.228.263-.14.158-.018.228.07.28-.035.088.053.21.21.193-.088.07.018.158.105.158-.421.035-.3.28-.105.263-.035.158,0,.21.245.175-.158.193.123.228.228.228-.368,0-.315.4-.07.333-.018.228.351.07.473.123-.263.245-.193.438.351.333-.263.368.21.263.245.14.333.228.438-.105.228-.21.14-.018.105-.158-.123-.21.3,0,.228-.088.175-.175.228.07.316-.053.228-.21.245.053.245-.228.245-.228a.175.175,0,0,0,.21.14c-.088.193.07.245.3.193-.088.193.018.245.158.263a.275.275,0,0,0,.123.263l-.035.07a1.188,1.188,0,0,0-.193.491c0,.21.123.386-.105.543l-.07.053a50.347,50.347,0,0,0-7.064.333c-1.578.158-2.3.228-2.3.228-3.208.456-2.261.526,2.1,1.069,1.315.158,1.437.245,1.77.263s.508.123,1.648.263c.543.07,1.455.3,1.665.316m-35.407-19h.018l.035-.018h.035l.018-.018h.035l.018-.018.018-.018h.018l.018-.018h.035v-.018h.018v-.018h.018l.018-.018h0l.018-.018h0c.088-.088.193-.123.175-.228a1.3,1.3,0,0,1,0-.263c0-.175-.123-.123-.21-.07-.088.035-.123.123-.193.193a1.864,1.864,0,0,1-.333.193c-.158.053-.245.105-.193.193.053.07.018.158.14.193A.507.507,0,0,0,75.577,152.541Zm2.769,5.767v.035l.018.018v.316h0v.035l.018.018h0v.018h0l.018.018h.018c.105.018.105.088.228.105.07,0,.035-.105.105-.14.088-.053.123.123.245-.158.053-.123.123-.123.158-.193a.4.4,0,0,0,0-.315.57.57,0,0,0-.123-.3c-.263-.158-.456-.07-.473.07-.018.088-.105.088-.123.175C78.416,158.15,78.328,158.167,78.346,158.307Zm2.787-3.33v.018h0v.018h-.018v.368l-.018.07v.859l-.018.088v.368l-.018.035v.088c-.018.158.035.315.123.315s.158-.105.158-.105.07-.088.07.035c.018.123-.018.105.018.14.07.053.158.053.245-.123.07-.193-.018-.421.14-.4.368.053.21-.3.28-.456a3.424,3.424,0,0,0,.053-.806c-.018-.053-.228.035-.228-.07-.018-.193.105-.438-.105-.438-.158,0-.088.14-.175.158-.088,0-.088.018-.175-.018-.035-.105-.088-.105-.158-.14C81.238,154.96,81.168,154.942,81.133,154.977Zm-3.225-1.315v.105l.018.018h0v.035h0l.018.018v.018h0v.018l.018.018h0l.018.018h0v.018H78v.018h.018l.018.018h.018l.018.018H78.1c.123.035.158,0,.263.053a.76.76,0,0,0,.368.105c.193.018.245-.018.245-.088a.517.517,0,0,1,.088-.263c.035-.07.07-.245-.018-.28a1.212,1.212,0,0,1-.368-.088c-.123-.07-.14-.158-.316-.158-.158,0-.158.105-.263.193C78.013,153.54,77.925,153.487,77.908,153.663Zm3.243-.21h0v.018h0v.018h-.018v.018h0v.018h.018v.018h0v.018h.018v.018H81.2v.018h.018v.018h.035v.018h.018v.018h.018v.018h.018v.018c.053.053-.123.088-.035.228s.228.105.421.14c.228.018.053.105.193.263.088.105.21.123.421.175.193.053.105.21.351.193.158-.018.561-.07.649-.21s0-.21-.14-.351c-.053-.035.07-.21-.035-.386-.105-.193-.438-.263-.526-.333a1.227,1.227,0,0,0-.456-.333c-.175-.053-.018-.123-.316-.14-.14,0-.368.123-.578.158C81.151,153.1,81.256,153.294,81.151,153.452Zm-.123-2.331H81.01v.053h0v.035h.018v.035l.018.018h0v.018l.018.018.018.018v.018l.018.018v.018l.018.018.018.018.018.018v.018l.018.035.018.018.018.035.018.018.018.035.018.035.018.018.018.035.018.053.018.035c.053.105.21.035.456.158.193.088.3.053.456.123.175.07.193.193.3.263.105.088.14.035.245.088.088.035.123.158.263.245.123.088.088.158.245.193.105.018.088-.07.175-.035.123.035.193.035.263-.018.07-.07,0-.158,0-.28,0-.07.123-.018.123-.105.035-.123-.123-.228-.158-.3s0-.14-.105-.316c-.088-.193-.088-.07-.21-.263-.088-.158-.053-.28-.21-.473a1.814,1.814,0,0,0-1-.386c-.421-.088-.876-.21-1.017-.088C80.993,150.683,81.115,150.84,81.028,151.121Zm2.209-1.455h.018l.018-.018h.018l.018-.018h0l.018-.018h.018V149.6h0v-.018h.018v-.018h0v-.018h.018v-.018h0v-.018h0v-.018h0v-.035h0v-.018l-.018-.018h0V149.4l-.018-.018h0v-.018h-.018v-.018h-.018l-.018-.018h-.018a1.885,1.885,0,0,0-.4-.07c-.123,0-.175-.105-.491-.123a6.867,6.867,0,0,0-1.034-.018.127.127,0,0,0-.123.193c.21.193.018.3-.035.368-.07.07-.035.123.053.21a.973.973,0,0,0,.333.123,1.315,1.315,0,0,0,.316.123c.14.018.491.105.578.123.105,0,.193.018.228-.053a.652.652,0,0,1,.3-.21C83.114,149.964,83.1,149.736,83.236,149.666Zm-7.1-4.259h0v.018h0v.018h0l.018.018h0v.018h.018l.018.018h.035l.018.018h.088l.018.018h.018c.175,0,.351.035.4-.053a.282.282,0,0,1,.193-.088c.07,0,.263.018.228-.14-.018-.158-.263-.175-.526-.158-.123.018-.351-.14-.508-.035C75.98,145.144,76.173,145.249,76.137,145.407Zm4.978,1.244h0v.018h0v.018h0v.018h0v.018h0v.018h.018v.018h0l.018.018h0l.018.018h0l.018.018H81.2v.018h.035v.018h.018c.105.018.21-.07.28-.123.053-.053.123-.105.21-.175s0-.175-.088-.175a1.187,1.187,0,0,0-.28.105A.782.782,0,0,0,81.115,146.651Zm1.069-.719h0l.018.018h.28a1.184,1.184,0,0,0,.473-.035c.175-.035.175-.088.21-.193.018-.105-.105-.14-.228-.193a1.019,1.019,0,0,0-.508.035.8.8,0,0,0-.351.21S82.1,145.915,82.185,145.933Zm-3.4-1.385v-.018l.018-.035h0v-.035h0l-.018-.018h0v-.035h0v-.035h0l-.018-.018h0v-.018h-.018v-.018h-.018V144.3h-.018v-.018H78.7v-.018h-.035l-.018-.018h-.018a1.391,1.391,0,0,0-.578-.053,3.6,3.6,0,0,0-.6.123c-.123.035.105.21-.263.14-.035-.018-.14.07-.018.175a.37.37,0,0,0,.3.07,1.417,1.417,0,0,1,.263.018.5.5,0,0,0,.245.053c.175.018.228-.053.438-.053C78.626,144.706,78.767,144.636,78.784,144.548Zm2.121.333h0v-.018h0v.018h0v.018h0v.035h0v.018h0v.105l-.018.018v.315l-.018.035v.07l.018.035v.053h0v.053h0v.035h0v.018h.018c.053.158.158.14.193.07a.374.374,0,0,1,.193-.175c.105-.035,0-.333.053-.456a2.322,2.322,0,0,0,.07-.982,1.275,1.275,0,0,0-.105-.368c-.105-.193-.21-.3-.3-.21-.088.105-.018.123-.088.368C80.888,144.057,80.905,145.021,80.905,144.881Zm1.893-2.454v.018h0v.018h0v.018h.018v.018h.018v.018h.035v.018h.053l.018.018h.053c-.07-.018.193.088.263.035.14-.158.245-.14.316-.316a1.118,1.118,0,0,1,.14-.245c.053-.07-.035-.175-.105-.193s-.123.018-.263.088a1.824,1.824,0,0,0-.333.245A.392.392,0,0,0,82.8,142.427Zm-.053-1.069v.035h0v.018h0v.018h.018v.018h0l.018.018h0l.018.018h.018l.018.018h.193l.018-.018h.018c.158-.035.263-.193.368-.28a.311.311,0,0,0,.123-.315c-.035-.14-.4.035-.333-.018.07-.035-.228.193-.28.228A.386.386,0,0,0,82.746,141.358Zm-.28-.982h.053v-.018h.018v-.018h.018v-.018h.018v-.018h0l.018-.018h0l.018-.018h0v-.018h.018v-.018h0a.546.546,0,0,0,.105-.351c-.018-.07.123-.21.053-.28-.07-.088-.28.21-.333.28-.035.088-.175.3-.158.386A.162.162,0,0,0,82.465,140.376Zm-1.613-.053v.245l.018.035v.07l.018.018v.053l.018.018v.035l.018.053v.035l.018.018v.14h0a.806.806,0,0,0,.07.491c.035.105-.088.806.018.876.123.053.193-.14.28-.245a5.574,5.574,0,0,0,.245-.929,6.548,6.548,0,0,0,.193-.911,3.259,3.259,0,0,0-.123-1,.71.71,0,0,0-.263-.368c-.105-.07-.175-.053-.21.018-.018.07-.053-.053-.053-.053-.14-.07-.175-.018-.193.07-.035.053-.053.386-.105.508C80.695,139.693,80.905,139.85,80.853,140.324Zm-1.946-2.577h.035v-.018h.018v-.018h.018v-.035h0l.018-.018v-.018h0v-.035l.018-.018v-.018h0v-.158h.018v-.035a.67.67,0,0,0-.07-.386c-.105-.123-.193-.018-.245-.018l-.035.316a.4.4,0,0,1,.088.245C78.784,137.642,78.819,137.765,78.907,137.747Zm.438-1.017h.088l.018-.018h.018l.018-.018h.035v-.018h.07v-.018c.088,0,.123-.035.193-.175a.538.538,0,0,0-.035-.368c-.035-.105-.158-.018-.228-.07s-.14-.158-.21-.105a.63.63,0,0,0-.123.316A1.368,1.368,0,0,0,79.345,136.73Zm-.14-1.823v.053h0v.018h-.018V135h0v.018h0l-.018.018v.018l-.018.018v.018h0v.018h0l-.018.018h0v.018h0v.018h0l-.018.018v.035h0v.018c-.018.158.193.351.228.4.018.053.333.088.351,0,.035-.14-.018-.21.018-.456.035-.21-.158-.28-.228-.4-.07-.105-.14-.158-.193-.088C79.222,134.732,79.222,134.82,79.2,134.907Zm1.35-.876v.035h0l-.018.018v.035h0v.14l-.018.018h0v.035h0v.035h0v.018h0v.018h0a.6.6,0,0,1-.053.316c-.053.07-.018.123.035.193.07.053.088.035.158,0,.088-.035.053.088.088.14l.21-.053a2.559,2.559,0,0,0,.105-.4,2.283,2.283,0,0,0,.018-.719c-.035-.368-.368-.158-.368-.158A.372.372,0,0,0,80.555,134.031Zm-3.208,7.432h0l.018.018h0v.018h0v.018h.018v.018l.018.018v.018h.018v.018h0l.018.018h0l.018.018h.018v.018h.018l.018.018h.018l.018.018h.018v.018h.018l.018.018h.018l.018.018h.018l.018.018h0l.018.018h0l.018.018c.14.105-.088.21.105.368.158.105.053.193.561.228.3,0,.228-.088.491-.21.228-.105-.175-.263-.105-.438.018-.053-.158-.263-.438-.3-.228-.018-.228-.228-.333-.28a1.72,1.72,0,0,0-.368-.07c-.158-.018-.28-.088-.351.035C77.207,141.2,77.294,141.305,77.347,141.463Zm4.978,17.844h.018v.018H82.4v.018h.053l.018-.018h.088l.018-.018h.035l.035-.018h.14c.315.07.315,0,.561-.018.316-.035.316-.175.421-.193a1.021,1.021,0,0,0,.578-.14.206.206,0,0,0,.07-.228c0-.14-.088-.123-.193-.123s-.018-.07.088-.105a.44.44,0,0,0,.245-.105c.053-.053.053-.105-.07-.21-.14-.07-.21,0-1.315.316s-1,.561-.911.6C82.413,159.1,82.22,159.236,82.325,159.307Z" transform="translate(-876.287 -112.577)" fill="#2d4b1e" stroke="#30601b" stroke-miterlimit="10.433" stroke-width="1"/>
      <path id="path6712" d="M59.033,426.791l-.035.018h-.053l-.018.018h-.123l-.018-.018H58.7l-.053-.018h-.035l-.053-.018h-.053l-.018-.018h-.21l-.018.018c-.4.088-1.42.14-2.068.228a4.577,4.577,0,0,1-.806.088,3.08,3.08,0,0,1-.894.018v.018a4.8,4.8,0,0,0,.245.631c.14.333.4,1.245.456,1.455s-.035.491.018.666c.07.193.28.351.351.508s.631,1.28.876,1.665a23.783,23.783,0,0,1,1.139,2.121l.018.018c.053-.018.123-.053.175-.07.123-.053.105-.088-.053-.123.123-.018.263-.14.14-.193.14-.07.263-.228.14-.263.088-.07.14-.368.14-.368a.654.654,0,0,0,.158.3c-.123,0,.018.07.07.123-.07.035.035.07.105.14-.105.035-.07.088.035.123-.07.053.053.088.158.035-.053.088-.105.088-.105.088a2.187,2.187,0,0,0,.824-.245c.28-.193.175-.263-.053-.368.21-.07.736-.228.561-.386.14-.105-.053-.175-.228-.21.631-.14.666-.245.6-.28.333-.193-.07-.28-.175-.351.421.088.333-.053.28-.158.351.158.368-.21.228-.315.14-.018.158-.21-.053-.333.351.035.561-.035.28-.228.175-.07.193-.158.123-.228.193-.123.07-.245-.018-.28.193-.088.175-.3.07-.351a1.7,1.7,0,0,0,.228-.631.656.656,0,0,0,.245.508.155.155,0,0,0,.105.263c-.14.21-.053.28.193.315-.088.123-.175.245.158.245-.28.193-.175.316.088.28-.28.105-.105.28.193.228-.21.158-.21.333.105.28-.3.158-.333.368.14.351-.158,0-.315.421.28.543.053-.473.228-3.733.263-4.312.018-.666-.018-1.1-.018-1.1s-.053-.035-.333-.018a1.267,1.267,0,0,1-.806-.018,1.218,1.218,0,0,0-.789-.018,1.651,1.651,0,0,0-.7.07.827.827,0,0,1-.789-.158c-.14-.105,0-.351.228-.351A4.089,4.089,0,0,0,59.033,426.791Z" transform="translate(-860.707 -376.993)" fill="#99542c" stroke="#99542c" stroke-miterlimit="10.433" stroke-width="1"/>
      <path id="path6714" d="M362.339,492.5h-.07l-.035-.018h-.088l-.035-.018h-.053l-.035-.018h-.053l-.053-.018-.053-.018h-.053l-.07-.018-.053-.018h-.07l-.123-.035-.123-.018-.123-.035-.123-.018-.123-.018-.053-.018h-.07l-.053-.018h-.053l-.053-.018h-.053c-1.139-.14-1.315-.245-1.648-.28-.333-.018-.456-.088-1.77-.263-4.365-.543-5.311-.613-2.1-1.052,0,0,.719-.088,2.3-.245a47.908,47.908,0,0,1,7.064-.316l-.053.035c-.456.386-1.367,1.507-1.578,1.735a6.223,6.223,0,0,0-.473.613C362.374,492.447,362.374,492.482,362.339,492.5Z" transform="translate(-1127.642 -433.535)" fill="#fff" stroke="#fff" stroke-miterlimit="10.433" stroke-width="1"/>
      <path id="path6718" d="M200.786,536.9h.035l.018-.018h.018l.018-.018h.018l.035-.017h.035l.018-.018.035-.017h.035l.053-.018.035-.018.053-.017h.035l.053-.018.053-.017.053-.018.053-.018h.053l.053-.017.07-.018h.053l.07-.017.053-.018h.07l.07-.018h.123l.07-.018a6.941,6.941,0,0,1,1.49.123c.088.035.28.035.473.07a6.317,6.317,0,0,1,.859.123,8.266,8.266,0,0,0,.876.351,2.787,2.787,0,0,1,.578.158,3.505,3.505,0,0,1,.456.175,6.893,6.893,0,0,0,1.052.333c.421.105.7.123,1.017.193.316.088.947.193,1.209.3a5.014,5.014,0,0,1,1.174.666,1.837,1.837,0,0,1,.561,1.1c.105.368,0,.491-.088.911s-.158.543-.105.684a1.061,1.061,0,0,1-.035.526c-.07.14-.158.175-.21.263a1.257,1.257,0,0,1-.245.228.273.273,0,0,1-.14-.105c-.035-.053-.053-.123-.105-.193-.035-.088-.123-.175-.105-.263s-.053-.14.035-.3a.989.989,0,0,0,.158-.263,2.525,2.525,0,0,0,.158-.438,2.875,2.875,0,0,0,.088-.6c-.018-.105-.053-.386-.053-.386l-.158-.21s-.175-.07-.228.07c-.053.193-.035.14-.158.578a3.187,3.187,0,0,1-.21.613,5.341,5.341,0,0,0-.3.7c-.053.228.3.456.386.841a1.5,1.5,0,0,0,.228.649c.053.105.053.21.123.228s.175.035.088.28a7.956,7.956,0,0,0-.333,1.034c-.035.263-.018.438-.035.456,0,.035-.053.035-.07.088-.018.035-.018.053-.018.14,0,.123-.035.438-.035.438s.035.123-.105.123c-.123-.018-.789-.018-.876-.018-.088-.018-.245-.07-.21-.175.018-.14.035-.351.105-.4.088-.035.193-.088.193-.088s.088-.228.123-.333a1.842,1.842,0,0,1,.105-.368,2.21,2.21,0,0,0,.07-.491,1.316,1.316,0,0,0-.228-.806c-.21-.333-.123-.316-.315-.438a1.771,1.771,0,0,0-.719-.315,1.358,1.358,0,0,0-.526.123c-.123.07-.386.193-.613.3-.263.14-.508.263-.613.315a.119.119,0,0,1-.193-.088c-.018-.105,0-.21-.123-.21a2.942,2.942,0,0,0-.316.088.6.6,0,0,0-.333.351c-.053.193-.088.21-.158.421a.709.709,0,0,1-.228.368,2.284,2.284,0,0,0-.333.263,1.151,1.151,0,0,0-.316.4,2.549,2.549,0,0,0-.123.438c-.035.07-.018.193-.035.245,0,.07-.018.245-.018.245s0,.158-.07.158c-.3,0-.666.018-.806.018-.123,0-.175-.053-.14-.14a2.388,2.388,0,0,1,.21-.351,1.446,1.446,0,0,0,.018-.578c-.035-.088-.245-.368-.28-.438-.035-.053-.035-.245-.123-.3a1.6,1.6,0,0,1-.3-.315.745.745,0,0,0-.4-.21,4.11,4.11,0,0,1-.947-.228c-.158-.088-.649-.351-.736-.4a1.869,1.869,0,0,0-.473-.21c-.088,0-.193-.035-.3.088-.193.175-.263.175-.351.263-.105.07-.088.088-.158.175-.053.105-.193.368-.228.456-.193.386-.368.333-.368.333s-.175.088-.438-.333-.368-.578-.368-.578-.158-.123-.263-.105-.4.07-.473.07c-.088-.035-.21.018-.3-.123a1,1,0,0,1-.175-.631,1.142,1.142,0,0,0-.123-.561,3.7,3.7,0,0,1-.193-.386,4.2,4.2,0,0,0-.193-.736,2.237,2.237,0,0,1-.228-.736s0-.123.018-.333a5.319,5.319,0,0,1,.07-.684.924.924,0,0,1,.351-.631c.158-.105.28-.333.491-.421.175-.07.4-.245.561-.245s.21-.105.543-.053a2.231,2.231,0,0,0,.771.105.733.733,0,0,0,.6-.3,3.923,3.923,0,0,1,.438-.543C200.418,537.142,200.786,536.9,200.786,536.9Zm-2.016,3h.105l.018.018h.053l.018.018H199l.018.017h.035l.018.018.018.017.035.018.018.018h.018l.018.017v.018h.018l.018.017v.018l.018.018h0l.018.018v.018l.018.017v.018l.018.018v.018l.018.018v.053l.018.018v.14c.438-.386.4-.7.4-.7a1.217,1.217,0,0,0-.333-.859c-.386-.368-.438-.21-.4.053s.123.333.018.526A3.72,3.72,0,0,1,198.771,539.894Zm-.754.719v.017H198v.018h0l-.018.018h0v.018h-.018v.018h-.018l-.018.018h0v.018h-.018l-.018.018h-.018c-.053.035-.158.175.018.21a.942.942,0,0,0,.386,0,2.617,2.617,0,0,0,.386-.088c.105-.018.193-.193,0-.228-.245-.07-.28-.21-.438-.193C198.07,540.454,198.052,540.56,198.017,540.612Z" transform="translate(-987.597 -475.145)" fill="#fff" stroke="#fff" stroke-miterlimit="10.433" stroke-width="1"/>
      <path id="polygon6724" d="M4987.363-6703.08h1.3l1.279,2.454h.018l-.018-2.454h.929v3.628h-1.262l-1.332-2.472h0l.035,2.472h-.947Z" transform="translate(-5774.016 6724.622)" fill="#fff" stroke="#fff" stroke-miterlimit="10.433" stroke-width="1"/>
      <path id="polygon6726" d="M4987.363-6703.08h1.3l1.279,2.454h.018l-.018-2.454h.929v3.628h-1.262l-1.332-2.472h0l.035,2.472h-.947Z" transform="translate(-5774.016 6724.622)" fill="none" stroke="#fff" stroke-miterlimit="10.433" stroke-width="0.553"/>
      <path id="polygon6728" d="M276.936,162.106h1.245l1.455,3.628h-1.1l-.28-.771h-1.437l-.3.771H275.5Zm.631.754h-.018l-.491,1.42h.947Z" transform="translate(-1058.173 -140.564)" fill="#fff" stroke="#fff" stroke-miterlimit="10.433" stroke-width="1"/>
      <path id="polygon6732" d="M276.936,162.106h1.244l1.455,3.628h-1.1l-.28-.771h-1.437l-.3.771H275.5Zm.631.754h-.018l-.491,1.42h.947Z" transform="translate(-1058.172 -140.564)" fill="none" stroke="#fff" stroke-miterlimit="10.433" stroke-width="0.553"/>
      <path id="polygon6736" d="M5062.673-6702.361h-.929v-.718h2.875v.718h-.929v2.91h-1.017Z" transform="translate(-5840.474 6724.622)" fill="#fff" stroke="#fff" stroke-miterlimit="10.433" stroke-width="1"/>
      <path id="polygon6738" d="M5062.673-6702.361h-.929v-.718h2.875v.718h-.929v2.91h-1.017Z" transform="translate(-5840.474 6724.622)" fill="none" stroke="#fff" stroke-miterlimit="10.433" stroke-width="0.553"/>
      <path id="polygon6740" d="M5093.834-6699.451h1.017v-3.628h-1.017Z" transform="translate(-5869.146 6724.622)" fill="#fff" stroke="#fff" stroke-miterlimit="10.433" stroke-width="1"/>
      <path id="polygon6742" d="M5093.834-6699.451h1.017v-3.628h-1.017Z" transform="translate(-5869.146 6724.622)" fill="none" stroke="#fff" stroke-miterlimit="10.433" stroke-width="0.553"/>
      <path id="path6744" d="M362.323,161.448h.105l.123.018h.105l.105.018.105.018.088.035.105.018.088.035.088.035.088.035.07.035.088.053.07.053.07.053.053.053.07.053.053.07.053.053.053.07.053.07.035.088.053.07.035.088.035.088.018.088.035.088.018.088.018.105.018.088v.21l.018.105a1.911,1.911,0,1,1-1.911-1.876Zm0,3.032h.105l.053-.018h.053l.053-.018.035-.018.053-.018.035-.018.035-.035.053-.018.035-.035.035-.035.018-.018.035-.035.035-.053.018-.035.035-.035.018-.053.018-.035.035-.053.018-.035v-.053l.018-.053.018-.053.018-.053v-.053l.018-.053V163.5l.018-.053v-.123c0-.631-.245-1.157-.859-1.157-.631,0-.876.526-.876,1.157C361.447,163.937,361.692,164.48,362.323,164.48Z" transform="translate(-1134.042 -139.976)" fill="#fff" stroke="#fff" stroke-miterlimit="10.433" stroke-width="1"/>
      <path id="path6748" d="M362.323,161.448h.105l.123.018h.105l.105.018.105.018.088.035.105.018.088.035.088.035.088.035.07.035.088.053.07.053.07.053.053.053.07.053.053.07.053.053.053.07.053.07.035.088.053.07.035.088.035.088.018.088.035.088.018.088.018.105.018.088v.21l.018.105a1.911,1.911,0,1,1-1.911-1.876Zm0,3.05h.053l.053-.018h.053l.053-.018.053-.018h.035l.053-.035.035-.018.035-.018.053-.035.035-.018.035-.035.018-.035.035-.035.035-.035.018-.053.035-.035.018-.035.018-.053.035-.053.018-.035v-.053l.018-.053.018-.053.018-.053v-.053l.018-.053V163.5l.018-.053v-.123c0-.631-.245-1.157-.859-1.157-.631,0-.876.526-.876,1.157C361.447,163.937,361.692,164.5,362.323,164.5Z" transform="translate(-1134.042 -139.976)" fill="none" stroke="#fff" stroke-miterlimit="10.433" stroke-width="0.553"/>
      <path id="polygon6752" d="M5151.43-6703.08h1.28l1.3,2.454h.018l-.035-2.454h.929v3.628h-1.262l-1.332-2.472h0l.035,2.472h-.929Z" transform="translate(-5920.607 6724.622)" fill="#fff" stroke="#fff" stroke-miterlimit="10.433" stroke-width="1"/>
      <path id="polygon6754" d="M5151.43-6703.08h1.28l1.3,2.454h.018l-.035-2.454h.929v3.628h-1.262l-1.332-2.472h0l.035,2.472h-.929Z" transform="translate(-5920.607 6724.622)" fill="none" stroke="#fff" stroke-miterlimit="10.433" stroke-width="0.553"/>
      <path id="polygon6756" d="M440.839,162.106h1.244l1.472,3.628h-1.1l-.3-.771h-1.42l-.3.771H439.4Zm.631.754h-.018l-.491,1.42h.947Z" transform="translate(-1204.618 -140.564)" fill="#fff" stroke="#fff" stroke-miterlimit="10.433" stroke-width="1"/>
      <path id="polygon6760" d="M440.839,162.106h1.245l1.472,3.628h-1.1l-.3-.771h-1.42l-.3.771H439.4Zm.631.754h-.018l-.491,1.42h.947Z" transform="translate(-1204.618 -140.564)" fill="none" stroke="#fff" stroke-miterlimit="10.433" stroke-width="0.553"/>
      <path id="polygon6764" d="M5231.9-6703.08h1v2.91h1.578v.719H5231.9Z" transform="translate(-5992.506 6724.622)" fill="#fff" stroke="#fff" stroke-miterlimit="10.433" stroke-width="1"/>
      <path id="polygon6766" d="M5231.9-6703.08h1v2.91h1.578v.719H5231.9Z" transform="translate(-5992.506 6724.622)" fill="none" stroke="#fff" stroke-miterlimit="10.433" stroke-width="0.553"/>
      <path id="path6768" d="M302.158,216.74H303.4c1.192,0,1.753.386,1.753,1.192,0,.736-.578,1.174-1.542,1.174h-.421v1.262h-1.034Zm1.034,1.683h.28c.368,0,.648-.123.648-.508,0-.368-.28-.491-.648-.491h-.28Z" transform="translate(-1081.992 -189.379)" fill="#fff" stroke="#fff" stroke-miterlimit="10.433" stroke-width="1"/>
      <path id="path6772" d="M302.158,216.74H303.4c1.192,0,1.753.386,1.753,1.192,0,.736-.578,1.174-1.542,1.174h-.421v1.262h-1.034Zm1.034,1.683h.28c.368,0,.649-.123.649-.508,0-.368-.28-.491-.649-.491h-.28Z" transform="translate(-1081.992 -189.379)" fill="none" stroke="#fff" stroke-miterlimit="10.433" stroke-width="0.553"/>
      <path id="polygon6776" d="M329.977,216.74h1.28l1.507,3.628h-1.157l-.28-.771h-1.472l-.316.771h-1.052Zm.631.736h0l-.508,1.437h.982Z" transform="translate(-1105.517 -189.379)" fill="#fff" stroke="#fff" stroke-miterlimit="10.433" stroke-width="1"/>
      <path id="polygon6780" d="M329.977,216.74h1.28l1.507,3.628h-1.157l-.28-.771h-1.472l-.315.771h-1.052Zm.631.736h0l-.508,1.437h.982Z" transform="translate(-1105.517 -189.379)" fill="none" stroke="#fff" stroke-miterlimit="10.433" stroke-width="0.553"/>
      <path id="path6784" d="M372.755,216.74h1.858c.7,0,1.262.3,1.262.911a.878.878,0,0,1-.754.929h0c.333.088.351.351.543.789l.386,1h-1.087l-.21-.666c-.228-.613-.351-.771-.754-.771h-.21v1.437h-1.034Zm1.034,1.507h.28c.333,0,.754-.018.754-.421,0-.351-.368-.4-.754-.4h-.28Z" transform="translate(-1145.07 -189.379)" fill="#fff" stroke="#fff" stroke-miterlimit="10.433" stroke-width="1"/>
      <path id="path6788" d="M372.755,216.74h1.858c.7,0,1.262.3,1.262.911a.878.878,0,0,1-.754.929h0c.333.088.351.351.543.789l.386,1h-1.087l-.21-.666c-.228-.613-.351-.771-.754-.771h-.21v1.437h-1.034Zm1.034,1.507h.28c.333,0,.754-.018.754-.421,0-.351-.368-.4-.754-.4h-.28Z" transform="translate(-1145.07 -189.379)" fill="none" stroke="#fff" stroke-miterlimit="10.433" stroke-width="0.553"/>
      <path id="polygon6792" d="M5157.848-6648.445h1.034v1.49h.018l1.174-1.49h1.244l-1.437,1.683,1.56,1.946h-1.332l-1.209-1.648h-.018v1.648h-1.034Z" transform="translate(-5926.342 6675.807)" fill="#fff" stroke="#fff" stroke-miterlimit="10.433" stroke-width="1"/>
      <path id="polygon6794" d="M5157.848-6648.445h1.034v1.49h.018l1.174-1.49h1.244l-1.437,1.683,1.56,1.946h-1.332l-1.209-1.648h-.018v1.648h-1.034Z" transform="translate(-5926.342 6675.807)" fill="none" stroke="#fff" stroke-miterlimit="10.433" stroke-width="0.553"/>
      <path id="path6796" d="M261.816,273.668l.053.018.053.035.053.018.053.018.07.018.053.018.07.035h.07l.053.018.07.018.088.018h.07l.07.018h.228c.351,0,.649-.053.649-.351,0-.684-1.84-.245-1.84-1.56,0-.876.911-1.1,1.7-1.1a3.386,3.386,0,0,1,1,.123l-.07.754a2.037,2.037,0,0,0-.859-.175c-.263,0-.7.035-.7.351,0,.578,1.84.193,1.84,1.49,0,.947-.841,1.192-1.718,1.192a4.158,4.158,0,0,1-1.139-.158Z" transform="translate(-1045.822 -237.753)" fill="#fff" stroke="#fff" stroke-miterlimit="10.433" stroke-width="1"/>
      <path id="path6798" d="M261.816,273.668l.053.018.053.035.053.018.053.018.07.018.053.018.07.035h.07l.053.018.07.018.088.018h.07l.07.018h.228c.351,0,.649-.053.649-.351,0-.684-1.84-.245-1.84-1.56,0-.876.911-1.1,1.7-1.1a3.386,3.386,0,0,1,1,.123l-.07.754a2.037,2.037,0,0,0-.859-.175c-.263,0-.7.035-.7.351,0,.578,1.84.193,1.84,1.49,0,.947-.841,1.192-1.718,1.192a4.158,4.158,0,0,1-1.139-.158Z" transform="translate(-1045.822 -237.753)" fill="none" stroke="#fff" stroke-miterlimit="10.433" stroke-width="0.553"/>
      <path id="polygon6800" d="M5044.136-6593.812h2.735v.684h-1.7v.736h1.612v.7h-1.612v.806h1.752v.7h-2.787Z" transform="translate(-5824.742 6626.992)" fill="#fff" stroke="#fff" stroke-miterlimit="10.433" stroke-width="1"/>
      <path id="polygon6802" d="M5044.136-6593.812h2.735v.684h-1.7v.736h1.612v.7h-1.612v.806h1.752v.7h-2.787Z" transform="translate(-5824.742 6626.992)" fill="none" stroke="#fff" stroke-miterlimit="10.433" stroke-width="0.553"/>
      <path id="path6804" d="M327.336,271.375h1.84c.684,0,1.245.3,1.245.911a.879.879,0,0,1-.736.929h0c.333.088.351.368.543.806l.386.982h-1.087l-.228-.666c-.193-.613-.333-.771-.719-.771h-.21V275h-1.034Zm1.034,1.507h.263c.333,0,.754-.018.754-.421,0-.333-.351-.4-.754-.4h-.263Z" transform="translate(-1104.489 -238.194)" fill="#fff" stroke="#fff" stroke-miterlimit="10.433" stroke-width="1"/>
      <path id="path6808" d="M327.336,271.375h1.84c.684,0,1.244.3,1.244.911a.879.879,0,0,1-.736.929h0c.333.088.351.368.543.806l.386.982h-1.087l-.228-.666c-.193-.613-.333-.771-.719-.771h-.21V275h-1.034Zm1.034,1.507h.263c.333,0,.754-.018.754-.421,0-.333-.351-.4-.754-.4h-.263Z" transform="translate(-1104.488 -238.194)" fill="none" stroke="#fff" stroke-miterlimit="10.433" stroke-width="0.553"/>
      <path id="polygon6812" d="M5109.467-6593.812h1.1l.859,2.84h.017l.859-2.84h1.052l-1.314,3.628h-1.28Z" transform="translate(-5883.114 6626.992)" fill="#fff" stroke="#fff" stroke-miterlimit="10.433" stroke-width="1"/>
      <path id="polygon6814" d="M5109.467-6593.812h1.1l.859,2.84h.017l.859-2.84h1.052l-1.314,3.628h-1.28Z" transform="translate(-5883.114 6626.992)" fill="none" stroke="#fff" stroke-miterlimit="10.433" stroke-width="0.553"/>
      <path id="polygon6816" d="M5151.1-6590.183h1.017v-3.628H5151.1Z" transform="translate(-5920.314 6626.992)" fill="#fff" stroke="#fff" stroke-miterlimit="10.433" stroke-width="1"/>
      <path id="polygon6818" d="M5151.1-6590.183h1.017v-3.628H5151.1Z" transform="translate(-5920.314 6626.992)" fill="none" stroke="#fff" stroke-miterlimit="10.433" stroke-width="0.553"/>
      <path id="path6820" d="M421.228,274.474l-.053.018-.07.018h-.053l-.053.018-.07.018h-.053l-.07.018h-.07l-.07.018h-.07l-.035.018h-.175l-.035.018h-.28c-1.034,0-2.226-.491-2.226-1.84,0-1.28.947-1.893,2.226-1.893a4.174,4.174,0,0,1,1.139.175l-.07.789a2.143,2.143,0,0,0-1.017-.263,1.161,1.161,0,1,0,.088,2.314,3.362,3.362,0,0,0,.964-.175Z" transform="translate(-1185.357 -237.753)" fill="#fff" stroke="#fff" stroke-miterlimit="10.433" stroke-width="1"/>
      <path id="path6822" d="M421.228,274.474l-.053.018-.07.018h-.053l-.053.018-.07.018h-.053l-.07.018h-.07l-.07.018h-.07l-.035.018h-.175l-.035.018h-.28c-1.034,0-2.226-.491-2.226-1.84,0-1.28.947-1.893,2.226-1.893a4.174,4.174,0,0,1,1.139.175l-.07.789a2.143,2.143,0,0,0-1.017-.263,1.161,1.161,0,1,0,.088,2.314,3.362,3.362,0,0,0,.964-.175Z" transform="translate(-1185.357 -237.753)" fill="none" stroke="#fff" stroke-miterlimit="10.433" stroke-width="0.553"/>
      <path id="polygon6824" d="M5203.432-6593.812h2.734v.684h-1.7v.736h1.613v.7h-1.613v.806h1.771v.7h-2.8Z" transform="translate(-5967.07 6626.992)" fill="#fff" stroke="#fff" stroke-miterlimit="10.433" stroke-width="1"/>
      <path id="polygon6826" d="M5203.432-6593.812h2.734v.684h-1.7v.736h1.613v.7h-1.613v.806h1.771v.7h-2.8Z" transform="translate(-5967.07 6626.992)" fill="none" stroke="#fff" stroke-miterlimit="10.433" stroke-width="0.553"/>
    </g>
  </g>
</svg>
